<svg xmlns:xlink="http://www.w3.org/1999/xlink" width="352" xmlns="http://www.w3.org/2000/svg" height="293" id="screenshot-a7c1654a-b86b-8093-8001-b6253c1915a4" viewBox="-7937 -10087 352 293" style="-webkit-print-color-adjust: exact;" fill="none" version="1.1"><g id="shape-a7c1654a-b86b-8093-8001-b6253c1915a4"><g id="fills-a7c1654a-b86b-8093-8001-b6253c1915a4"><path rx="0" ry="0" d="M-7819.215,-9794C-7826.436,-9794,-7832.754,-9796.747,-7838.169,-9802.241C-7843.585,-9807.734,-7846.292,-9814.144,-7846.292,-9821.469L-7846.292,-9867.25L-7790.333,-9867.25L-7790.333,-9925.392C-7801.766,-9924.477,-7813.198,-9926.079,-7824.631,-9930.199C-7836.063,-9934.32,-7846.292,-9940.805,-7855.318,-9949.656L-7855.318,-9976.209L-7877.882,-9976.209L-7937,-10036.183C-7926.169,-10046.56,-7913.232,-10055.029,-7898.19,-10061.591C-7883.147,-10068.153,-7867.803,-10071.434,-7852.159,-10071.434C-7843.133,-10071.434,-7832.829,-10069.985,-7821.246,-10067.085C-7809.663,-10064.186,-7799.359,-10059.531,-7790.333,-10053.122L-7790.333,-10087L-7585,-10087L-7585,-9842.07C-7585,-9828.641,-7589.588,-9817.272,-7598.764,-9807.963C-7607.94,-9798.654,-7619.147,-9794,-7632.385,-9794ZM-7763.256,-9867.25L-7652.692,-9867.25L-7652.692,-9842.07C-7652.692,-9835.966,-7650.812,-9831.007,-7647.051,-9827.191C-7643.291,-9823.376,-7638.402,-9821.469,-7632.385,-9821.469C-7626.368,-9821.469,-7621.479,-9823.376,-7617.718,-9827.191C-7613.957,-9831.007,-7612.077,-9835.966,-7612.077,-9842.07L-7612.077,-10059.531L-7763.256,-10059.531L-7763.256,-10033.436L-7654.497,-9923.103L-7654.497,-9903.417L-7673.903,-9903.417L-7730.764,-9961.102L-7738.436,-9951.945C-7742.347,-9947.367,-7746.258,-9943.857,-7750.169,-9941.416C-7754.08,-9938.974,-7758.443,-9936.685,-7763.256,-9934.548ZM-7865.697,-10003.678L-7828.241,-10003.678L-7828.241,-9962.933C-7823.126,-9959.576,-7818.087,-9957.058,-7813.123,-9955.379C-7808.159,-9953.7,-7803.12,-9952.861,-7798.005,-9952.861C-7790.484,-9952.861,-7782.812,-9954.921,-7774.99,-9959.041C-7767.168,-9963.162,-7761.451,-9967.358,-7757.841,-9971.631L-7750.169,-9980.787L-7781.308,-10012.377C-7790.935,-10022.143,-7801.766,-10029.85,-7813.8,-10035.496C-7825.834,-10041.142,-7838.621,-10043.966,-7852.159,-10043.966C-7860.282,-10043.966,-7867.653,-10042.974,-7874.272,-10040.99C-7880.891,-10039.006,-7887.66,-10036.335,-7894.579,-10032.978ZM-7679.769,-9839.781L-7819.215,-9839.781L-7819.215,-9821.469L-7673.451,-9821.469C-7675.256,-9823.3,-7676.761,-9825.818,-7677.964,-9829.023C-7679.168,-9832.227,-7679.769,-9835.814,-7679.769,-9839.781ZZM-7819.215,-9821.469L-7819.215,-9839.781L-7819.215,-9821.469ZZ" style="fill: rgb(236, 237, 233); fill-opacity: 1;"/></g></g></svg>